<?xml version="1.0" encoding="UTF-8" standalone="no"?>
<!-- Created with Inkscape (http://www.inkscape.org/) -->

<svg
   xmlns:dc="http://purl.org/dc/elements/1.1/"
   xmlns:cc="http://creativecommons.org/ns#"
   xmlns:rdf="http://www.w3.org/1999/02/22-rdf-syntax-ns#"
   xmlns:svg="http://www.w3.org/2000/svg"
   xmlns="http://www.w3.org/2000/svg"
   xmlns:sodipodi="http://sodipodi.sourceforge.net/DTD/sodipodi-0.dtd"
   xmlns:inkscape="http://www.inkscape.org/namespaces/inkscape"
   width="800"
   height="200"
   viewBox="0 0 211.66666 52.916668"
   version="1.1"
   id="svg8"
   inkscape:version="0.92.3 (2405546, 2018-03-11)"
   sodipodi:docname="pub_chapeaux.svg">
  <defs
     id="defs2" />
  <sodipodi:namedview
     id="base"
     pagecolor="#ffffff"
     bordercolor="#666666"
     borderopacity="1.0"
     inkscape:pageopacity="0.0"
     inkscape:pageshadow="2"
     inkscape:zoom="0.98994949"
     inkscape:cx="270.36863"
     inkscape:cy="-59.878536"
     inkscape:document-units="px"
     inkscape:current-layer="layer1"
     showgrid="false"
     units="px"
     inkscape:snap-global="true"
     inkscape:snap-bbox="true"
     inkscape:bbox-nodes="true"
     inkscape:snap-page="true"
     inkscape:window-width="1920"
     inkscape:window-height="1027"
     inkscape:window-x="-8"
     inkscape:window-y="-8"
     inkscape:window-maximized="1" />
  <metadata
     id="metadata5">
    <rdf:RDF>
      <cc:Work
         rdf:about="">
        <dc:format>image/svg+xml</dc:format>
        <dc:type
           rdf:resource="http://purl.org/dc/dcmitype/StillImage" />
        <dc:title />
      </cc:Work>
    </rdf:RDF>
  </metadata>
  <g
     inkscape:label="Calque 1"
     inkscape:groupmode="layer"
     id="layer1"
     transform="translate(0,-244.08332)">
    <rect
       style="opacity:1;fill:#ffccaa;fill-opacity:1;stroke:none;stroke-width:1.05833328;stroke-linecap:round;stroke-linejoin:round;stroke-miterlimit:4;stroke-dasharray:none;stroke-dashoffset:0;stroke-opacity:1"
       id="rect869"
       width="211.66666"
       height="52.916664"
       x="0"
       y="244.08331" />
    <g
       aria-label="Oh les beaux"
       style="font-style:normal;font-variant:normal;font-weight:normal;font-stretch:normal;font-size:10.58333302px;line-height:1.25;font-family:Arial;-inkscape-font-specification:Arial;letter-spacing:0px;word-spacing:0px;fill:#000000;fill-opacity:1;stroke:none;stroke-width:0.26458332"
       id="text859">
      <path
         d="m 9.5960891,251.85951 q 0.8268229,0 1.5916339,0.22221 0.764811,0.2222 1.33842,0.71313 0.573608,0.48576 0.857828,1.12138 0.284221,0.63562 0.284221,1.46244 0,0.86817 -0.315226,1.5968 -0.310059,0.72347 -0.89917,1.2299 -0.589112,0.50643 -1.405599,0.74414 -0.816488,0.23255 -1.7001548,0.23255 -0.8733317,0 -1.6743164,-0.22738 -0.8009846,-0.23254 -1.3952636,-0.74414 -0.5891113,-0.51676 -0.8371582,-1.14722 -0.2480468,-0.63045 -0.2480468,-1.40043 0,-1.13171 0.5219319,-1.98437 0.5270996,-0.85783 1.5554606,-1.33842 1.0335286,-0.48059 2.3254394,-0.48059 z m -0.093018,1.55546 q -0.594279,0 -1.0748698,0.29455 -0.4805908,0.28939 -0.7389729,0.81132 -0.2583822,0.51677 -0.2583822,1.11105 0,0.54777 0.232544,1.00252 0.2377115,0.45475 0.7183023,0.71313 0.4805908,0.25322 1.0180257,0.25322 0.5736084,0 1.0490314,-0.28422 0.480591,-0.28939 0.728638,-0.80615 0.253214,-0.52194 0.253214,-1.09038 0,-0.55293 -0.232544,-1.01802 -0.232544,-0.47026 -0.682128,-0.72864 -0.449585,-0.25838 -1.0128585,-0.25838 z"
         style="font-style:normal;font-variant:normal;font-weight:normal;font-stretch:normal;font-family:'Eras Bold ITC';-inkscape-font-specification:'Eras Bold ITC';stroke-width:0.26458332"
         id="path826" />
      <path
         d="m 14.412333,259.0477 q 0.08268,-0.76998 0.118855,-1.26607 0.07235,-1.0387 0.149862,-2.41329 0.04651,-0.90951 0.06718,-1.74667 0.02584,-0.83715 0.02584,-1.6278 0.65629,0.0103 1.069702,0.0103 0.558105,0 1.054199,-0.0103 l -0.108521,1.25057 q -0.02584,0.31005 -0.08268,1.25573 0.170532,-0.21704 0.279053,-0.32039 0.10852,-0.10852 0.237712,-0.19637 0.134358,-0.093 0.268717,-0.15503 0.139526,-0.062 0.315226,-0.10852 0.180868,-0.0465 0.392741,-0.0724 0.217041,-0.0258 0.444417,-0.0258 0.43925,0 0.847494,0.0982 0.413411,0.0982 0.702799,0.34623 0.289388,0.24288 0.392741,0.54777 0.103353,0.29972 0.103353,0.66146 0,0.13953 -0.01034,0.37207 -0.0052,0.22738 -0.03101,0.57878 l -0.113688,1.74149 q -0.02067,0.32556 -0.02584,0.5426 0,0.21188 0,0.53744 -0.537435,-0.0103 -1.028361,-0.0103 -0.552938,0 -1.121379,0.0103 0.08785,-0.6873 0.155029,-1.5813 0.06718,-0.89917 0.06718,-1.33842 0,-0.48576 -0.206706,-0.68213 -0.201538,-0.19637 -0.537435,-0.19637 -0.299723,0 -0.532267,0.12402 -0.206706,0.10853 -0.361735,0.3359 -0.134359,0.1912 -0.222209,0.55294 -0.103353,0.43925 -0.160197,1.29708 -0.03101,0.47542 -0.06201,1.48828 -0.521931,-0.0103 -0.976684,-0.0103 -0.45992,0 -1.111043,0.0103 z"
         style="font-style:normal;font-variant:normal;font-weight:normal;font-stretch:normal;font-family:'Eras Bold ITC';-inkscape-font-specification:'Eras Bold ITC';stroke-width:0.26458332"
         id="path828" />
      <path
         d="m 24.292867,259.04253 0.09302,-1.11104 0.201538,-3.86023 0.05684,-2.07739 q 0.718303,0.0103 1.080038,0.0103 0.470255,0 1.038696,-0.0103 l -0.118856,1.58646 -0.191203,3.90674 -0.04134,1.56063 q -0.552938,-0.0103 -0.997355,-0.0103 z"
         style="font-style:normal;font-variant:normal;font-weight:normal;font-stretch:normal;font-family:'Eras Bold ITC';-inkscape-font-specification:'Eras Bold ITC';stroke-width:0.26458332"
         id="path830" />
      <path
         d="m 32.70579,257.48707 q -0.06718,0.31006 -0.258383,1.49862 -0.599446,0.11885 -1.00769,0.15503 -0.408244,0.0413 -0.826823,0.0413 -0.614949,0 -1.131714,-0.0879 -0.516764,-0.0827 -0.894002,-0.29973 -0.37207,-0.21704 -0.625285,-0.53743 -0.253214,-0.32556 -0.387573,-0.76998 -0.129191,-0.44442 -0.129191,-0.91467 0,-0.66146 0.26355,-1.29191 0.26355,-0.63562 0.676961,-0.99219 0.418579,-0.35657 0.961182,-0.50643 0.542602,-0.14986 1.111043,-0.14986 0.589111,0 1.121378,0.13953 0.537435,0.13435 0.909506,0.47542 0.37207,0.34106 0.527099,0.76998 0.160197,0.42891 0.160197,0.92501 0,0.29455 -0.06718,0.65629 l -3.622518,0.005 q -0.0052,0.0827 -0.0052,0.14987 0,0.5581 0.397909,0.82165 0.397908,0.26355 0.971517,0.26355 0.341064,0 0.775146,-0.0775 0.43925,-0.0827 1.080038,-0.27389 z m -3.178101,-1.67432 h 1.705322 q 0.0052,-0.0879 0.0052,-0.14986 0,-0.26871 -0.09818,-0.45992 -0.09302,-0.1912 -0.273885,-0.27905 -0.1757,-0.0879 -0.397909,-0.0879 -0.155029,0 -0.299723,0.0517 -0.144694,0.0465 -0.26355,0.14469 -0.113688,0.093 -0.191203,0.21704 -0.07751,0.12402 -0.113688,0.24288 -0.03617,0.11369 -0.07235,0.32039 z"
         style="font-style:normal;font-variant:normal;font-weight:normal;font-stretch:normal;font-family:'Eras Bold ITC';-inkscape-font-specification:'Eras Bold ITC';stroke-width:0.26458332"
         id="path832" />
      <path
         d="m 33.811665,258.94951 q -0.02067,-0.22737 -0.04134,-0.47542 -0.02067,-0.25321 -0.06718,-0.69246 l -0.04134,-0.37207 q 0.501261,0.19637 0.862996,0.29455 0.361735,0.093 0.666626,0.093 0.253215,0 0.408244,-0.0465 0.160197,-0.0465 0.232544,-0.13436 0.07235,-0.0879 0.07235,-0.18087 0,-0.0827 -0.05684,-0.16019 -0.05168,-0.0827 -0.242879,-0.22221 -0.423747,-0.31006 -0.749309,-0.56327 -0.320394,-0.25322 -0.485758,-0.44959 -0.160197,-0.19637 -0.248047,-0.42375 -0.08268,-0.22737 -0.08268,-0.47025 0,-0.42892 0.242879,-0.80099 0.248047,-0.37207 0.72347,-0.53743 0.480591,-0.17053 1.167887,-0.17053 0.718303,0 1.834514,0.18603 l 0.08268,1.45211 q -0.625285,-0.24805 -1.204061,-0.24805 -0.408244,0 -0.594279,0.0827 -0.180867,0.0827 -0.180867,0.25322 0,0.0568 0.02067,0.10852 0.02067,0.0517 0.07235,0.10852 0.05684,0.0568 0.134359,0.11886 0.08268,0.0568 0.392741,0.27388 0.310058,0.21704 0.485758,0.35657 0.289388,0.22738 0.43925,0.42375 0.155029,0.1912 0.232544,0.41341 0.08268,0.21704 0.08268,0.45992 0,0.3669 -0.180867,0.67696 -0.1757,0.30489 -0.537435,0.5116 -0.356568,0.2067 -0.775147,0.28422 -0.418579,0.0827 -0.862996,0.0827 -0.299724,0 -0.754476,-0.0517 -0.449585,-0.0517 -1.049032,-0.18087 z"
         style="font-style:normal;font-variant:normal;font-weight:normal;font-stretch:normal;font-family:'Eras Bold ITC';-inkscape-font-specification:'Eras Bold ITC';stroke-width:0.26458332"
         id="path834" />
      <path
         d="m 41.583801,259.0477 q 0.144694,-1.62781 0.253214,-3.79305 0.108521,-2.16524 0.108521,-3.26078 0.599446,0.0103 1.121378,0.0103 0.511597,0 1.002523,-0.0103 -0.113688,0.80615 -0.165364,1.7725 0.470255,-0.0775 0.72347,-0.10336 0.253214,-0.0258 0.501261,-0.0258 0.795817,0 1.35909,0.25321 0.568441,0.24805 0.919841,0.84233 0.356567,0.59428 0.356567,1.4521 0,0.85783 -0.335897,1.5813 -0.335897,0.71831 -0.89917,1.06971 -0.563273,0.34623 -1.312581,0.34623 -0.279053,0 -0.532267,-0.0568 -0.253215,-0.0568 -0.459921,-0.16536 -0.206705,-0.11369 -0.346232,-0.23771 -0.139526,-0.12403 -0.320394,-0.3359 l -0.02067,0.66146 q -0.552938,-0.0103 -0.925008,-0.0103 -0.304891,0 -1.028361,0.0103 z m 2.175578,-3.82922 q -0.04134,0.85782 -0.04134,1.04903 0,0.48576 0.08268,0.76998 0.08785,0.28422 0.325561,0.45475 0.242879,0.17053 0.542603,0.17053 0.310058,0 0.542602,-0.17053 0.232544,-0.17053 0.3514,-0.4961 0.124023,-0.33072 0.124023,-0.69246 0,-0.5426 -0.294555,-0.86816 -0.289388,-0.33073 -0.837158,-0.33073 -0.341065,0 -0.795817,0.11369 z"
         style="font-style:normal;font-variant:normal;font-weight:normal;font-stretch:normal;font-family:'Eras Bold ITC';-inkscape-font-specification:'Eras Bold ITC';stroke-width:0.26458332"
         id="path836" />
      <path
         d="m 53.645079,257.48707 q -0.06718,0.31006 -0.258383,1.49862 -0.599446,0.11885 -1.00769,0.15503 -0.408244,0.0413 -0.826823,0.0413 -0.614949,0 -1.131714,-0.0879 -0.516764,-0.0827 -0.894002,-0.29973 -0.37207,-0.21704 -0.625285,-0.53743 -0.253214,-0.32556 -0.387573,-0.76998 -0.129191,-0.44442 -0.129191,-0.91467 0,-0.66146 0.26355,-1.29191 0.26355,-0.63562 0.676961,-0.99219 0.418579,-0.35657 0.961182,-0.50643 0.542602,-0.14986 1.111043,-0.14986 0.589111,0 1.121378,0.13953 0.537435,0.13435 0.909506,0.47542 0.37207,0.34106 0.527099,0.76998 0.160197,0.42891 0.160197,0.92501 0,0.29455 -0.06718,0.65629 l -3.622518,0.005 q -0.0052,0.0827 -0.0052,0.14987 0,0.5581 0.397909,0.82165 0.397908,0.26355 0.971517,0.26355 0.341064,0 0.775146,-0.0775 0.43925,-0.0827 1.080038,-0.27389 z m -3.178101,-1.67432 H 52.1723 q 0.0052,-0.0879 0.0052,-0.14986 0,-0.26871 -0.09819,-0.45992 -0.09302,-0.1912 -0.273885,-0.27905 -0.1757,-0.0879 -0.397909,-0.0879 -0.155029,0 -0.299723,0.0517 -0.144694,0.0465 -0.26355,0.14469 -0.113688,0.093 -0.191203,0.21704 -0.07751,0.12402 -0.113688,0.24288 -0.03617,0.11369 -0.07235,0.32039 z"
         style="font-style:normal;font-variant:normal;font-weight:normal;font-stretch:normal;font-family:'Eras Bold ITC';-inkscape-font-specification:'Eras Bold ITC';stroke-width:0.26458332"
         id="path838" />
      <path
         d="m 55.278054,255.27532 q 0.09819,-0.5116 0.124023,-0.7028 0.02584,-0.19637 0.08268,-0.60978 1.488281,-0.32556 2.557983,-0.32556 0.609782,0 1.116211,0.13952 0.506429,0.13436 0.790649,0.43925 0.284221,0.30489 0.284221,0.87333 0,0.28939 -0.07751,1.30225 -0.07751,1.01286 -0.118856,2.65617 -0.506429,-0.0103 -1.00769,-0.0103 -0.485759,0 -1.033529,0.0103 0.07235,-0.56844 0.160197,-2.34611 -0.19637,0.093 -0.310058,0.13436 -0.108521,0.0413 -0.387574,0.12402 -0.279052,0.0827 -0.439249,0.13953 -0.15503,0.0568 -0.273885,0.14469 -0.113688,0.0879 -0.165365,0.18087 -0.04651,0.093 -0.04651,0.2067 0,0.1757 0.139527,0.29973 0.139526,0.12402 0.444417,0.12402 0.10852,0 0.232544,-0.0155 0.124023,-0.0207 0.341064,-0.093 -0.149861,0.39791 -0.356567,1.16272 -0.444417,0.0723 -0.842326,0.0723 -0.640788,0 -1.069702,-0.1757 -0.423747,-0.18087 -0.656291,-0.57878 -0.227376,-0.39791 -0.227376,-0.79582 0,-0.24287 0.08268,-0.47542 0.08785,-0.23254 0.268718,-0.45475 0.180867,-0.22221 0.423747,-0.37724 0.242879,-0.1602 0.661458,-0.29972 0.423747,-0.13953 1.069702,-0.26355 0.268717,-0.0517 0.490926,-0.10852 0.227376,-0.062 0.320394,-0.10336 0.09819,-0.0465 0.155029,-0.10335 0.06201,-0.062 0.08785,-0.12402 0.02584,-0.0672 0.02584,-0.13953 0,-0.19637 -0.165364,-0.29972 -0.165365,-0.10852 -0.485759,-0.10852 -0.888834,0 -2.196248,0.50126 z"
         style="font-style:normal;font-variant:normal;font-weight:normal;font-stretch:normal;font-family:'Eras Bold ITC';-inkscape-font-specification:'Eras Bold ITC';stroke-width:0.26458332"
         id="path841" />
      <path
         d="m 66.982767,259.0477 q -0.589111,-0.0103 -0.981852,-0.0103 -0.485759,0 -0.976685,0.0103 l -0.0052,-0.70797 q -0.186035,0.23255 -0.315227,0.3514 -0.129191,0.11369 -0.28422,0.20154 -0.149862,0.0879 -0.341064,0.15503 -0.186035,0.062 -0.434082,0.0982 -0.24288,0.0362 -0.496094,0.0362 -0.408244,0 -0.775147,-0.0982 -0.361735,-0.093 -0.640787,-0.32039 -0.273885,-0.22738 -0.377238,-0.51677 -0.09819,-0.28938 -0.09819,-0.67179 0,-0.093 0.0155,-0.28939 l 0.08268,-1.17305 q 0.03617,-0.64596 0.06718,-1.43144 0.02067,-0.48059 0.02067,-0.9095 0.640787,0.0103 1.090372,0.0103 0.454753,0 1.002523,-0.0103 l -0.160197,1.96887 q -0.03617,0.44958 -0.04134,0.61495 0,0.16019 0,0.21704 0,0.5426 0.217041,0.7338 0.222209,0.19121 0.5271,0.19121 0.124023,0 0.248047,-0.0362 0.124023,-0.0362 0.237711,-0.10335 0.09819,-0.062 0.180868,-0.15503 0.08785,-0.0982 0.155029,-0.23771 0.08268,-0.17053 0.124023,-0.3669 0.05684,-0.27389 0.08785,-0.69247 0.02067,-0.30489 0.05684,-1.0542 l 0.04134,-1.08003 q 0.666625,0.0103 1.09554,0.0103 0.480591,0 0.966349,-0.0103 -0.118856,1.31258 -0.186035,2.49597 -0.06718,1.18339 -0.103353,2.78019 z"
         style="font-style:normal;font-variant:normal;font-weight:normal;font-stretch:normal;font-family:'Eras Bold ITC';-inkscape-font-specification:'Eras Bold ITC';stroke-width:0.26458332"
         id="path843" />
      <path
         d="m 67.587382,259.0477 1.178222,-1.5658 0.873332,-1.19889 -1.62264,-2.51147 q 0.754476,0.0103 1.297078,0.0103 0.682129,0 1.121379,-0.0103 l 0.54777,1.18339 q 0.05168,0.10852 0.149862,0.33589 0.397908,-0.68213 0.940511,-1.51928 0.45992,0.0103 1.100708,0.0103 0.594279,0 1.131714,-0.0103 l -0.826823,1.0852 q -0.24288,0.32039 -1.038697,1.4056 0.475424,0.82165 1.736328,2.78536 -0.583943,-0.0103 -1.152384,-0.0103 -0.692464,0 -1.240234,0.0103 -0.335897,-0.72347 -0.516765,-1.0697 -0.175699,-0.34624 -0.299723,-0.63562 l -0.165364,0.28422 q -0.07751,0.12919 -0.237712,0.3824 l -0.656291,1.0387 q -0.558105,-0.0103 -1.085205,-0.0103 -0.609782,0 -1.235066,0.0103 z"
         style="font-style:normal;font-variant:normal;font-weight:normal;font-stretch:normal;font-family:'Eras Bold ITC';-inkscape-font-specification:'Eras Bold ITC';stroke-width:0.26458332"
         id="path845" />
    </g>
    <g
       aria-label="chapeaux"
       style="font-style:normal;font-variant:normal;font-weight:normal;font-stretch:normal;font-size:23.56913757px;line-height:1.25;font-family:Arial;-inkscape-font-specification:Arial;letter-spacing:0px;word-spacing:0px;fill:#000000;fill-opacity:1;stroke:none;stroke-width:0.58922839"
       id="text863">
      <path
         d="m 33.155333,279.26593 q -0.05754,0.46034 -0.276201,1.69173 l -0.299217,1.84134 q -1.806814,0.43732 -3.533069,0.43732 -1.254412,0 -2.198099,-0.25318 -1.116311,-0.29922 -2.002456,-1.05877 -0.909161,-0.78257 -1.323462,-1.85285 -0.49486,-1.25441 -0.49486,-2.80804 0,-1.42704 0.483352,-2.7505 0.483351,-1.32346 1.427037,-2.17508 0.943687,-0.86313 2.094523,-1.15084 1.150837,-0.29922 2.54335,-0.29922 0.817094,0 1.645696,0.0921 0.828603,0.0806 2.04849,0.36827 l 0.02302,0.26469 q 0.03453,0.4143 0.04603,0.85162 0.02302,0.42581 0.08056,1.35799 l 0.06905,1.02424 q -1.645697,-0.57542 -2.911617,-0.57542 -0.909161,0 -1.599663,0.35676 -0.678994,0.34525 -1.012737,1.01274 -0.322234,0.65597 -0.322234,1.53061 0,0.88615 0.287709,1.48458 0.299218,0.59844 0.943686,0.89765 0.644469,0.29922 1.415529,0.29922 0.391285,0 0.92067,-0.0806 0.540893,-0.0806 0.932178,-0.17262 0.402793,-0.10358 1.012736,-0.33375 z"
         style="font-style:normal;font-variant:normal;font-weight:normal;font-stretch:normal;font-family:'Eras Bold ITC';-inkscape-font-specification:'Eras Bold ITC';stroke-width:0.58922839"
         id="path848" />
      <path
         d="m 35.203823,282.9371 q 0.184134,-1.71474 0.264692,-2.81955 0.161117,-2.31318 0.333743,-5.3744 0.103575,-2.02548 0.149609,-3.88983 0.05754,-1.86436 0.05754,-3.62514 1.461562,0.023 2.382232,0.023 1.242903,0 2.347707,-0.023 l -0.241676,2.78503 q -0.05754,0.6905 -0.184134,2.79653 0.379776,-0.48335 0.621452,-0.71352 0.241676,-0.24168 0.529385,-0.43732 0.299218,-0.20715 0.598435,-0.34525 0.310726,-0.1381 0.702011,-0.24167 0.402792,-0.10358 0.874635,-0.16112 0.483352,-0.0575 0.98972,-0.0575 0.978211,0 1.887372,0.21866 0.92067,0.21865 1.565139,0.77106 0.644468,0.54089 0.874635,1.21988 0.230168,0.66749 0.230168,1.47307 0,0.31073 -0.02302,0.82861 -0.01151,0.50637 -0.06905,1.28893 l -0.253184,3.87832 q -0.04603,0.72503 -0.05754,1.20838 0,0.47185 0,1.19687 -1.19687,-0.023 -2.290165,-0.023 -1.231396,0 -2.497316,0.023 0.195642,-1.53061 0.345251,-3.52156 0.149609,-2.00245 0.149609,-2.98066 0,-1.08179 -0.460335,-1.51911 -0.448826,-0.43732 -1.19687,-0.43732 -0.667486,0 -1.185362,0.2762 -0.460335,0.24168 -0.805586,0.74805 -0.299217,0.42581 -0.49486,1.23139 -0.230167,0.97821 -0.356759,2.8886 -0.06905,1.05877 -0.138101,3.31441 -1.162345,-0.023 -2.175081,-0.023 -1.024245,0 -2.474299,0.023 z"
         style="font-style:normal;font-variant:normal;font-weight:normal;font-stretch:normal;font-family:'Eras Bold ITC';-inkscape-font-specification:'Eras Bold ITC';stroke-width:0.58922839"
         id="path850" />
      <path
         d="m 52.42034,274.53599 q 0.218659,-1.13932 0.276201,-1.56513 0.05754,-0.43732 0.184134,-1.35799 3.31441,-0.72503 5.696642,-0.72503 1.357987,0 2.485807,0.31073 1.12782,0.29922 1.760781,0.97821 0.63296,0.67899 0.63296,1.94491 0,0.64447 -0.172626,2.90011 -0.172625,2.25564 -0.264692,5.9153 -1.12782,-0.023 -2.244132,-0.023 -1.081786,0 -2.301673,0.023 0.161117,-1.26592 0.356759,-5.2248 -0.437318,0.20715 -0.690502,0.29922 -0.241676,0.0921 -0.863128,0.2762 -0.621452,0.18414 -0.978211,0.31073 -0.345251,0.12659 -0.609943,0.32223 -0.253185,0.19565 -0.368268,0.4028 -0.103576,0.20715 -0.103576,0.46033 0,0.39128 0.310726,0.66749 0.310726,0.2762 0.98972,0.2762 0.241676,0 0.517877,-0.0345 0.2762,-0.046 0.759552,-0.20715 -0.333743,0.88615 -0.794077,2.58938 -0.98972,0.16112 -1.875864,0.16112 -1.427038,0 -2.382233,-0.39128 -0.943686,-0.4028 -1.461562,-1.28894 -0.506369,-0.88615 -0.506369,-1.77229 0,-0.54089 0.184134,-1.05877 0.195643,-0.51788 0.598435,-1.01274 0.402793,-0.49486 0.943687,-0.84011 0.540893,-0.35676 1.473071,-0.66748 0.943686,-0.31073 2.382232,-0.58693 0.598435,-0.11508 1.093295,-0.24167 0.506368,-0.1381 0.713519,-0.23017 0.218659,-0.10358 0.345251,-0.23017 0.1381,-0.1381 0.195642,-0.2762 0.05754,-0.14961 0.05754,-0.31073 0,-0.43731 -0.368268,-0.66748 -0.368268,-0.24168 -1.081787,-0.24168 -1.979439,0 -4.891056,1.11631 z"
         style="font-style:normal;font-variant:normal;font-weight:normal;font-stretch:normal;font-family:'Eras Bold ITC';-inkscape-font-specification:'Eras Bold ITC';stroke-width:0.58922839"
         id="path852" />
      <path
         d="m 65.263681,288.32302 q 0.218659,-2.35922 0.368267,-4.70692 0.264693,-4.01642 0.35676,-6.7324 0.103575,-2.72748 0.103575,-5.39742 2.336199,-0.35676 3.659661,-0.47185 1.323462,-0.12659 2.646925,-0.12659 1.657205,0 3.049717,0.34525 1.392513,0.34525 2.232624,1.21989 0.851619,0.87464 1.277428,2.08301 0.42581,1.20838 0.42581,2.53185 0,1.20837 -0.345251,2.3477 -0.345251,1.12782 -1.05877,2.03698 -0.713519,0.90916 -1.645696,1.34648 -0.92067,0.43732 -2.059998,0.43732 -0.56391,0 -1.173854,-0.11508 -0.598435,-0.10358 -1.139328,-0.31073 -0.540894,-0.20715 -0.909161,-0.4143 -0.35676,-0.21866 -0.897653,-0.62145 l -0.126592,3.21083 q -0.08056,2.20961 -0.08056,3.33743 -1.33497,-0.023 -2.290165,-0.023 -0.828602,0 -2.39374,0.023 z m 5.305357,-13.90211 q -0.09207,0.51788 -0.126592,0.85162 -0.03453,0.32223 -0.06905,0.88614 -0.03453,0.55241 -0.03453,0.88615 0,0.94369 0.287709,1.58815 0.299218,0.63296 0.817094,0.98972 0.529385,0.34525 1.12782,0.34525 0.63296,0 1.162345,-0.35676 0.529385,-0.36826 0.840111,-1.09329 0.310726,-0.72503 0.310726,-1.63419 0,-1.23139 -0.655977,-1.97944 -0.644468,-0.74804 -1.887372,-0.74804 -0.782569,0 -1.772289,0.26469 z"
         style="font-style:normal;font-variant:normal;font-weight:normal;font-stretch:normal;font-family:'Eras Bold ITC';-inkscape-font-specification:'Eras Bold ITC';stroke-width:0.58922839"
         id="path854" />
      <path
         d="m 92.469463,279.46158 q -0.149609,0.6905 -0.575419,3.33742 -1.33497,0.2647 -2.244131,0.34525 -0.909161,0.0921 -1.841339,0.0921 -1.369496,0 -2.520333,-0.19564 -1.150837,-0.18414 -1.990947,-0.66749 -0.828603,-0.48335 -1.392513,-1.19687 -0.56391,-0.72502 -0.863127,-1.71474 -0.28771,-0.98972 -0.28771,-2.03698 0,-1.47308 0.586927,-2.8771 0.586927,-1.41553 1.507596,-2.2096 0.932178,-0.79408 2.140557,-1.12782 1.208378,-0.33375 2.474299,-0.33375 1.311954,0 2.497316,0.31073 1.19687,0.29922 2.025472,1.05877 0.828603,0.75955 1.173854,1.71475 0.356759,0.95519 0.356759,2.05999 0,0.65598 -0.149608,1.46157 l -8.067366,0.0115 q -0.01151,0.18413 -0.01151,0.33374 0,1.2429 0.886145,1.82983 0.886144,0.58693 2.163573,0.58693 0.759552,0 1.726255,-0.17263 0.978211,-0.18413 2.405249,-0.60994 z m -7.077646,-3.72872 h 3.797761 q 0.01151,-0.19564 0.01151,-0.33374 0,-0.59843 -0.218659,-1.02424 -0.20715,-0.42581 -0.609943,-0.62145 -0.391285,-0.19565 -0.886144,-0.19565 -0.345251,0 -0.667486,0.11509 -0.322234,0.10357 -0.586927,0.32223 -0.253184,0.20715 -0.425809,0.48335 -0.172626,0.2762 -0.253184,0.5409 -0.08056,0.25318 -0.161117,0.71351 z"
         style="font-style:normal;font-variant:normal;font-weight:normal;font-stretch:normal;font-family:'Eras Bold ITC';-inkscape-font-specification:'Eras Bold ITC';stroke-width:0.58922839"
         id="path856" />
      <path
         d="m 96.106108,274.53599 q 0.218659,-1.13932 0.276201,-1.56513 0.05754,-0.43732 0.184134,-1.35799 3.31441,-0.72503 5.696647,-0.72503 1.35798,0 2.4858,0.31073 1.12782,0.29922 1.76078,0.97821 0.63296,0.67899 0.63296,1.94491 0,0.64447 -0.17262,2.90011 -0.17263,2.25564 -0.26469,5.9153 -1.12782,-0.023 -2.24414,-0.023 -1.08178,0 -2.30167,0.023 0.16112,-1.26592 0.35676,-5.2248 -0.43732,0.20715 -0.6905,0.29922 -0.24168,0.0921 -0.86313,0.2762 -0.62145,0.18414 -0.978212,0.31073 -0.345251,0.12659 -0.609943,0.32223 -0.253184,0.19565 -0.368268,0.4028 -0.103575,0.20715 -0.103575,0.46033 0,0.39128 0.310726,0.66749 0.310725,0.2762 0.989722,0.2762 0.24167,0 0.51787,-0.0345 0.2762,-0.046 0.75956,-0.20715 -0.33375,0.88615 -0.79408,2.58938 -0.989721,0.16112 -1.875865,0.16112 -1.427038,0 -2.382232,-0.39128 -0.943687,-0.4028 -1.461563,-1.28894 -0.506368,-0.88615 -0.506368,-1.77229 0,-0.54089 0.184133,-1.05877 0.195643,-0.51788 0.598436,-1.01274 0.402792,-0.49486 0.943686,-0.84011 0.540893,-0.35676 1.473071,-0.66748 0.943686,-0.31073 2.382232,-0.58693 0.59844,-0.11508 1.0933,-0.24167 0.50636,-0.1381 0.71351,-0.23017 0.21866,-0.10358 0.34525,-0.23017 0.13811,-0.1381 0.19565,-0.2762 0.0575,-0.14961 0.0575,-0.31073 0,-0.43731 -0.36827,-0.66748 -0.36827,-0.24168 -1.08179,-0.24168 -1.979435,0 -4.891052,1.11631 z"
         style="font-style:normal;font-variant:normal;font-weight:normal;font-stretch:normal;font-family:'Eras Bold ITC';-inkscape-font-specification:'Eras Bold ITC';stroke-width:0.58922839"
         id="path858" />
      <path
         d="m 122.17256,282.9371 q -1.31196,-0.023 -2.18659,-0.023 -1.08179,0 -2.17509,0.023 l -0.0115,-1.57664 q -0.41431,0.51787 -0.70201,0.78257 -0.28771,0.25318 -0.63296,0.44882 -0.33375,0.19564 -0.75956,0.34525 -0.4143,0.1381 -0.9667,0.21866 -0.54089,0.0806 -1.1048,0.0806 -0.90916,0 -1.72626,-0.21866 -0.80558,-0.20715 -1.42704,-0.71352 -0.60994,-0.50637 -0.84011,-1.15083 -0.21866,-0.64447 -0.21866,-1.49609 0,-0.20715 0.0345,-0.64447 l 0.18413,-2.6124 q 0.0806,-1.43855 0.14961,-3.18782 0.046,-1.07028 0.046,-2.02547 1.42703,0.023 2.42826,0.023 1.01274,0 2.23262,-0.023 l -0.35675,4.38469 q -0.0806,1.00123 -0.0921,1.36949 0,0.35676 0,0.48336 0,1.20837 0.48335,1.63418 0.49486,0.42581 1.17385,0.42581 0.2762,0 0.5524,-0.0806 0.27621,-0.0805 0.52939,-0.23016 0.21866,-0.1381 0.40279,-0.34525 0.19564,-0.21866 0.34525,-0.52939 0.18414,-0.37978 0.2762,-0.81709 0.1266,-0.60995 0.19565,-1.54212 0.046,-0.679 0.12659,-2.34771 l 0.0921,-2.40525 q 1.48458,0.023 2.43977,0.023 1.07028,0 2.15206,-0.023 -0.26469,2.92313 -0.4143,5.55854 -0.14961,2.63542 -0.23016,6.1915 z"
         style="font-style:normal;font-variant:normal;font-weight:normal;font-stretch:normal;font-family:'Eras Bold ITC';-inkscape-font-specification:'Eras Bold ITC';stroke-width:0.58922839"
         id="path860" />
      <path
         d="m 123.51904,282.9371 2.62391,-3.48703 1.94492,-2.66994 -3.61363,-5.59307 q 1.68022,0.023 2.8886,0.023 1.5191,0 2.49731,-0.023 l 1.21989,2.63542 q 0.11508,0.24167 0.33374,0.74804 0.88615,-1.5191 2.09453,-3.38346 1.02424,0.023 2.45128,0.023 1.32346,0 2.52033,-0.023 l -1.84134,2.41676 q -0.54089,0.71352 -2.31318,3.13027 1.05877,1.82983 3.86681,6.20301 -1.30044,-0.023 -2.56636,-0.023 -1.54213,0 -2.76201,0.023 -0.74805,-1.61117 -1.15084,-2.38223 -0.39128,-0.77106 -0.66748,-1.41553 l -0.36827,0.63296 q -0.17263,0.28771 -0.52939,0.85162 l -1.46156,2.31318 q -1.2429,-0.023 -2.41676,-0.023 -1.35798,0 -2.7505,0.023 z"
         style="font-style:normal;font-variant:normal;font-weight:normal;font-stretch:normal;font-family:'Eras Bold ITC';-inkscape-font-specification:'Eras Bold ITC';stroke-width:0.58922839"
         id="path862" />
    </g>
    <g
       id="g855"
       transform="matrix(0.71614233,0,0,0.71614233,93.535186,41.967845)">
      <ellipse
         transform="rotate(13.114091)"
         ry="7.6171813"
         rx="46.371262"
         cy="281.18527"
         cx="183.42023"
         id="path835"
         style="opacity:1;fill:#552200;fill-opacity:1;stroke:none;stroke-width:1.05833328;stroke-linecap:round;stroke-linejoin:round;stroke-miterlimit:4;stroke-dasharray:none;stroke-dashoffset:0;stroke-opacity:1" />
      <path
         sodipodi:nodetypes="csssc"
         inkscape:connector-curvature="0"
         id="path837"
         d="m 91.367544,311.81855 2.44173,-10.92277 c 2.004604,-8.96733 13.797326,-13.86874 26.160636,-10.9885 12.3633,2.88023 20.75486,12.48374 18.61082,21.41875 l -2.35425,9.81114"
         style="opacity:1;fill:#552200;fill-opacity:1;stroke:none;stroke-width:1.05833328;stroke-linecap:round;stroke-linejoin:round;stroke-miterlimit:4;stroke-dasharray:none;stroke-dashoffset:0;stroke-opacity:1" />
      <path
         sodipodi:nodetypes="ccccc"
         inkscape:connector-curvature="0"
         id="path840"
         d="m 138.26551,312.38461 c -13.66073,-1.01966 -28.5953,-4.09579 -44.666267,-10.44004 l -1.200632,5.15366 c 16.070969,6.34425 31.005539,9.42039 44.666269,10.44004 z"
         style="fill:#ffffff;stroke:#ffffff;stroke-width:0.26458332px;stroke-linecap:butt;stroke-linejoin:miter;stroke-opacity:1" />
    </g>
    <g
       aria-label="!"
       style="font-style:normal;font-variant:normal;font-weight:normal;font-stretch:normal;font-size:34.24246216px;line-height:1.25;font-family:Arial;-inkscape-font-specification:Arial;letter-spacing:0px;word-spacing:0px;fill:#000000;fill-opacity:1;stroke:none;stroke-width:0.85606152"
       id="text867">
      <path
         d="m 144.70893,279.11833 q 0.2508,-5.88542 0.40128,-14.29556 2.12343,0.0334 3.52791,0.0334 1.12024,0 3.34399,-0.0334 -0.3344,3.07647 -1.12024,14.29556 -1.70543,-0.0334 -2.74207,-0.0334 -1.52151,0 -3.41087,0.0334 z m -0.78584,8.52718 q 0.13376,-1.55496 0.18392,-2.37424 0.0502,-0.83599 0.1672,-3.44431 2.10672,0.0334 3.59479,0.0334 1.254,0 3.34399,-0.0334 -0.23408,3.76199 -0.28424,5.81855 -2.54143,-0.0334 -3.39415,-0.0334 -1.25399,0 -3.61151,0.0334 z"
         style="font-style:normal;font-variant:normal;font-weight:normal;font-stretch:normal;font-family:'Eras Bold ITC';-inkscape-font-specification:'Eras Bold ITC';stroke-width:0.85606152"
         id="path823" />
    </g>
  </g>
</svg>
