<?xml version="1.0" encoding="UTF-8" standalone="no"?>
<!-- Created with Inkscape (http://www.inkscape.org/) -->

<svg
   xmlns:dc="http://purl.org/dc/elements/1.1/"
   xmlns:cc="http://creativecommons.org/ns#"
   xmlns:rdf="http://www.w3.org/1999/02/22-rdf-syntax-ns#"
   xmlns:svg="http://www.w3.org/2000/svg"
   xmlns="http://www.w3.org/2000/svg"
   xmlns:sodipodi="http://sodipodi.sourceforge.net/DTD/sodipodi-0.dtd"
   xmlns:inkscape="http://www.inkscape.org/namespaces/inkscape"
   width="800"
   height="200"
   viewBox="0 0 211.66666 52.916668"
   version="1.1"
   id="svg8"
   inkscape:version="0.92.3 (2405546, 2018-03-11)"
   sodipodi:docname="pub_bonbons.svg">
  <defs
     id="defs2" />
  <sodipodi:namedview
     id="base"
     pagecolor="#ffffff"
     bordercolor="#666666"
     borderopacity="1.0"
     inkscape:pageopacity="0.0"
     inkscape:pageshadow="2"
     inkscape:zoom="0.7"
     inkscape:cx="66.396134"
     inkscape:cy="-273.63357"
     inkscape:document-units="px"
     inkscape:current-layer="g837"
     showgrid="false"
     units="px"
     inkscape:snap-global="true"
     inkscape:snap-bbox="true"
     inkscape:bbox-nodes="true"
     inkscape:snap-page="true"
     inkscape:window-width="1920"
     inkscape:window-height="1027"
     inkscape:window-x="-8"
     inkscape:window-y="-8"
     inkscape:window-maximized="1">
    <inkscape:grid
       type="xygrid"
       id="grid829" />
  </sodipodi:namedview>
  <metadata
     id="metadata5">
    <rdf:RDF>
      <cc:Work
         rdf:about="">
        <dc:format>image/svg+xml</dc:format>
        <dc:type
           rdf:resource="http://purl.org/dc/dcmitype/StillImage" />
        <dc:title />
      </cc:Work>
    </rdf:RDF>
  </metadata>
  <g
     inkscape:label="Calque 1"
     inkscape:groupmode="layer"
     id="layer1"
     transform="translate(0,-244.08332)">
    <rect
       style="opacity:1;fill:#aaffcc;fill-opacity:1;stroke:none;stroke-width:1.05833328;stroke-linecap:round;stroke-linejoin:round;stroke-miterlimit:4;stroke-dasharray:none;stroke-dashoffset:0;stroke-opacity:1"
       id="rect869"
       width="211.66666"
       height="52.916664"
       x="0"
       y="244.08331" />
    <g
       aria-label="Oh les bons"
       style="font-style:normal;font-variant:normal;font-weight:normal;font-stretch:normal;font-size:10.58333302px;line-height:1.25;font-family:Arial;-inkscape-font-specification:Arial;letter-spacing:0px;word-spacing:0px;fill:#000000;fill-opacity:1;stroke:none;stroke-width:0.26458332"
       id="text859">
      <path
         d="m 9.5960891,251.85951 q 0.8268229,0 1.5916339,0.22221 0.764811,0.2222 1.33842,0.71313 0.573608,0.48576 0.857828,1.12138 0.284221,0.63562 0.284221,1.46244 0,0.86817 -0.315226,1.5968 -0.310059,0.72347 -0.89917,1.2299 -0.589112,0.50643 -1.405599,0.74414 -0.816488,0.23255 -1.7001548,0.23255 -0.8733317,0 -1.6743164,-0.22738 -0.8009846,-0.23254 -1.3952636,-0.74414 -0.5891113,-0.51676 -0.8371582,-1.14722 -0.2480468,-0.63045 -0.2480468,-1.40043 0,-1.13171 0.5219319,-1.98437 0.5270996,-0.85783 1.5554606,-1.33842 1.0335286,-0.48059 2.3254394,-0.48059 z m -0.093018,1.55546 q -0.594279,0 -1.0748698,0.29455 -0.4805908,0.28939 -0.7389729,0.81132 -0.2583822,0.51677 -0.2583822,1.11105 0,0.54777 0.232544,1.00252 0.2377115,0.45475 0.7183023,0.71313 0.4805908,0.25322 1.0180257,0.25322 0.5736084,0 1.0490314,-0.28422 0.480591,-0.28939 0.728638,-0.80615 0.253214,-0.52194 0.253214,-1.09038 0,-0.55293 -0.232544,-1.01802 -0.232544,-0.47026 -0.682128,-0.72864 -0.449585,-0.25838 -1.0128585,-0.25838 z"
         style="font-style:normal;font-variant:normal;font-weight:normal;font-stretch:normal;font-family:'Eras Bold ITC';-inkscape-font-specification:'Eras Bold ITC';stroke-width:0.26458332"
         id="path847" />
      <path
         d="m 14.412333,259.0477 q 0.08268,-0.76998 0.118855,-1.26607 0.07235,-1.0387 0.149862,-2.41329 0.04651,-0.90951 0.06718,-1.74667 0.02584,-0.83715 0.02584,-1.6278 0.65629,0.0103 1.069702,0.0103 0.558105,0 1.054199,-0.0103 l -0.108521,1.25057 q -0.02584,0.31005 -0.08268,1.25573 0.170532,-0.21704 0.279053,-0.32039 0.10852,-0.10852 0.237712,-0.19637 0.134358,-0.093 0.268717,-0.15503 0.139526,-0.062 0.315226,-0.10852 0.180868,-0.0465 0.392741,-0.0724 0.217041,-0.0258 0.444417,-0.0258 0.43925,0 0.847494,0.0982 0.413411,0.0982 0.702799,0.34623 0.289388,0.24288 0.392741,0.54777 0.103353,0.29972 0.103353,0.66146 0,0.13953 -0.01034,0.37207 -0.0052,0.22738 -0.03101,0.57878 l -0.113688,1.74149 q -0.02067,0.32556 -0.02584,0.5426 0,0.21188 0,0.53744 -0.537435,-0.0103 -1.028361,-0.0103 -0.552938,0 -1.121379,0.0103 0.08785,-0.6873 0.155029,-1.5813 0.06718,-0.89917 0.06718,-1.33842 0,-0.48576 -0.206706,-0.68213 -0.201538,-0.19637 -0.537435,-0.19637 -0.299723,0 -0.532267,0.12402 -0.206706,0.10853 -0.361735,0.3359 -0.134359,0.1912 -0.222209,0.55294 -0.103353,0.43925 -0.160197,1.29708 -0.03101,0.47542 -0.06201,1.48828 -0.521931,-0.0103 -0.976684,-0.0103 -0.45992,0 -1.111043,0.0103 z"
         style="font-style:normal;font-variant:normal;font-weight:normal;font-stretch:normal;font-family:'Eras Bold ITC';-inkscape-font-specification:'Eras Bold ITC';stroke-width:0.26458332"
         id="path849" />
      <path
         d="m 24.292867,259.04253 0.09302,-1.11104 0.201538,-3.86023 0.05684,-2.07739 q 0.718303,0.0103 1.080038,0.0103 0.470255,0 1.038696,-0.0103 l -0.118856,1.58646 -0.191203,3.90674 -0.04134,1.56063 q -0.552938,-0.0103 -0.997355,-0.0103 z"
         style="font-style:normal;font-variant:normal;font-weight:normal;font-stretch:normal;font-family:'Eras Bold ITC';-inkscape-font-specification:'Eras Bold ITC';stroke-width:0.26458332"
         id="path851" />
      <path
         d="m 32.70579,257.48707 q -0.06718,0.31006 -0.258383,1.49862 -0.599446,0.11885 -1.00769,0.15503 -0.408244,0.0413 -0.826823,0.0413 -0.614949,0 -1.131714,-0.0879 -0.516764,-0.0827 -0.894002,-0.29973 -0.37207,-0.21704 -0.625285,-0.53743 -0.253214,-0.32556 -0.387573,-0.76998 -0.129191,-0.44442 -0.129191,-0.91467 0,-0.66146 0.26355,-1.29191 0.26355,-0.63562 0.676961,-0.99219 0.418579,-0.35657 0.961182,-0.50643 0.542602,-0.14986 1.111043,-0.14986 0.589111,0 1.121378,0.13953 0.537435,0.13435 0.909506,0.47542 0.37207,0.34106 0.527099,0.76998 0.160197,0.42891 0.160197,0.92501 0,0.29455 -0.06718,0.65629 l -3.622518,0.005 q -0.0052,0.0827 -0.0052,0.14987 0,0.5581 0.397909,0.82165 0.397908,0.26355 0.971517,0.26355 0.341064,0 0.775146,-0.0775 0.43925,-0.0827 1.080038,-0.27389 z m -3.178101,-1.67432 h 1.705322 q 0.0052,-0.0879 0.0052,-0.14986 0,-0.26871 -0.09818,-0.45992 -0.09302,-0.1912 -0.273885,-0.27905 -0.1757,-0.0879 -0.397909,-0.0879 -0.155029,0 -0.299723,0.0517 -0.144694,0.0465 -0.26355,0.14469 -0.113688,0.093 -0.191203,0.21704 -0.07751,0.12402 -0.113688,0.24288 -0.03617,0.11369 -0.07235,0.32039 z"
         style="font-style:normal;font-variant:normal;font-weight:normal;font-stretch:normal;font-family:'Eras Bold ITC';-inkscape-font-specification:'Eras Bold ITC';stroke-width:0.26458332"
         id="path853" />
      <path
         d="m 33.811665,258.94951 q -0.02067,-0.22737 -0.04134,-0.47542 -0.02067,-0.25321 -0.06718,-0.69246 l -0.04134,-0.37207 q 0.501261,0.19637 0.862996,0.29455 0.361735,0.093 0.666626,0.093 0.253215,0 0.408244,-0.0465 0.160197,-0.0465 0.232544,-0.13436 0.07235,-0.0879 0.07235,-0.18087 0,-0.0827 -0.05684,-0.16019 -0.05168,-0.0827 -0.242879,-0.22221 -0.423747,-0.31006 -0.749309,-0.56327 -0.320394,-0.25322 -0.485758,-0.44959 -0.160197,-0.19637 -0.248047,-0.42375 -0.08268,-0.22737 -0.08268,-0.47025 0,-0.42892 0.242879,-0.80099 0.248047,-0.37207 0.72347,-0.53743 0.480591,-0.17053 1.167887,-0.17053 0.718303,0 1.834514,0.18603 l 0.08268,1.45211 q -0.625285,-0.24805 -1.204061,-0.24805 -0.408244,0 -0.594279,0.0827 -0.180867,0.0827 -0.180867,0.25322 0,0.0568 0.02067,0.10852 0.02067,0.0517 0.07235,0.10852 0.05684,0.0568 0.134359,0.11886 0.08268,0.0568 0.392741,0.27388 0.310058,0.21704 0.485758,0.35657 0.289388,0.22738 0.43925,0.42375 0.155029,0.1912 0.232544,0.41341 0.08268,0.21704 0.08268,0.45992 0,0.3669 -0.180867,0.67696 -0.1757,0.30489 -0.537435,0.5116 -0.356568,0.2067 -0.775147,0.28422 -0.418579,0.0827 -0.862996,0.0827 -0.299724,0 -0.754476,-0.0517 -0.449585,-0.0517 -1.049032,-0.18087 z"
         style="font-style:normal;font-variant:normal;font-weight:normal;font-stretch:normal;font-family:'Eras Bold ITC';-inkscape-font-specification:'Eras Bold ITC';stroke-width:0.26458332"
         id="path855" />
      <path
         d="m 41.583801,259.0477 q 0.144694,-1.62781 0.253214,-3.79305 0.108521,-2.16524 0.108521,-3.26078 0.599446,0.0103 1.121378,0.0103 0.511597,0 1.002523,-0.0103 -0.113688,0.80615 -0.165364,1.7725 0.470255,-0.0775 0.72347,-0.10336 0.253214,-0.0258 0.501261,-0.0258 0.795817,0 1.35909,0.25321 0.568441,0.24805 0.919841,0.84233 0.356567,0.59428 0.356567,1.4521 0,0.85783 -0.335897,1.5813 -0.335897,0.71831 -0.89917,1.06971 -0.563273,0.34623 -1.312581,0.34623 -0.279053,0 -0.532267,-0.0568 -0.253215,-0.0568 -0.459921,-0.16536 -0.206705,-0.11369 -0.346232,-0.23771 -0.139526,-0.12403 -0.320394,-0.3359 l -0.02067,0.66146 q -0.552938,-0.0103 -0.925008,-0.0103 -0.304891,0 -1.028361,0.0103 z m 2.175578,-3.82922 q -0.04134,0.85782 -0.04134,1.04903 0,0.48576 0.08268,0.76998 0.08785,0.28422 0.325561,0.45475 0.242879,0.17053 0.542603,0.17053 0.310058,0 0.542602,-0.17053 0.232544,-0.17053 0.3514,-0.4961 0.124023,-0.33072 0.124023,-0.69246 0,-0.5426 -0.294555,-0.86816 -0.289388,-0.33073 -0.837158,-0.33073 -0.341065,0 -0.795817,0.11369 z"
         style="font-style:normal;font-variant:normal;font-weight:normal;font-stretch:normal;font-family:'Eras Bold ITC';-inkscape-font-specification:'Eras Bold ITC';stroke-width:0.26458332"
         id="path857" />
      <path
         d="m 51.60386,253.63718 q 0.640787,0 1.229899,0.19637 0.594279,0.19637 1.002522,0.56844 0.408244,0.3669 0.599447,0.86299 0.19637,0.49093 0.19637,1.05937 0,0.55294 -0.175699,1.0542 -0.170533,0.49609 -0.583944,0.93534 -0.413411,0.43409 -1.054199,0.65113 -0.63562,0.21704 -1.348755,0.21704 -0.656291,0 -1.260905,-0.19121 -0.604614,-0.1912 -1.012858,-0.5581 -0.403076,-0.3669 -0.609782,-0.8785 -0.201538,-0.5116 -0.201538,-1.07487 0,-0.56327 0.19637,-1.07487 0.201539,-0.5116 0.630453,-0.91984 0.434082,-0.40824 1.069702,-0.62528 0.63562,-0.22221 1.322917,-0.22221 z m -0.03617,1.51928 q -0.330729,0 -0.589111,0.17054 -0.258382,0.17053 -0.392741,0.50126 -0.129191,0.32556 -0.129191,0.71313 0,0.56844 0.28422,0.87333 0.284221,0.29973 0.713135,0.29973 0.325562,0 0.583944,-0.17054 0.258382,-0.1757 0.387573,-0.51159 0.134359,-0.34107 0.134359,-0.72864 0,-0.32039 -0.103353,-0.57878 -0.103353,-0.25838 -0.341065,-0.41341 -0.232544,-0.15503 -0.54777,-0.15503 z"
         style="font-style:normal;font-variant:normal;font-weight:normal;font-stretch:normal;font-family:'Eras Bold ITC';-inkscape-font-specification:'Eras Bold ITC';stroke-width:0.26458332"
         id="path859" />
      <path
         d="m 55.340065,259.0477 q 0.149861,-1.17306 0.227376,-2.58899 0.08268,-1.4211 0.09819,-2.68717 0.620117,0.0103 1.069702,0.0103 0.521932,0 1.002523,-0.0103 l -0.05168,0.70279 q 0.170533,-0.1912 0.294556,-0.29972 0.124024,-0.11369 0.304891,-0.21704 0.186035,-0.10852 0.392741,-0.1757 0.206706,-0.0672 0.449585,-0.10335 0.248047,-0.0413 0.516764,-0.0413 0.37207,0 0.72347,0.0827 0.356568,0.0775 0.594279,0.22738 0.237712,0.14469 0.397909,0.3669 0.160197,0.21704 0.211873,0.47025 0.05168,0.25322 0.05168,0.52194 0,0.19637 -0.04134,0.84749 l -0.08785,1.87069 q -0.02584,0.55293 -0.02584,1.02319 -0.521932,-0.0103 -0.976684,-0.0103 -0.61495,0 -1.121379,0.0103 0.04651,-0.47026 0.09819,-1.39526 0.05168,-0.93018 0.05168,-1.30742 0,-0.58394 -0.227377,-0.81132 -0.222208,-0.23254 -0.563273,-0.23254 -0.299723,0 -0.56844,0.19637 -0.26355,0.19637 -0.408244,0.57361 -0.144694,0.37207 -0.206706,1.2299 -0.05684,0.85782 -0.07751,1.74666 -0.516764,-0.0103 -1.00769,-0.0103 -0.516764,0 -1.121378,0.0103 z"
         style="font-style:normal;font-variant:normal;font-weight:normal;font-stretch:normal;font-family:'Eras Bold ITC';-inkscape-font-specification:'Eras Bold ITC';stroke-width:0.26458332"
         id="path861" />
      <path
         d="m 62.543759,258.94951 q -0.02067,-0.22737 -0.04134,-0.47542 -0.02067,-0.25321 -0.06718,-0.69246 l -0.04134,-0.37207 q 0.501261,0.19637 0.862996,0.29455 0.361735,0.093 0.666626,0.093 0.253214,0 0.408244,-0.0465 0.160197,-0.0465 0.232544,-0.13436 0.07235,-0.0879 0.07235,-0.18087 0,-0.0827 -0.05684,-0.16019 -0.05168,-0.0827 -0.24288,-0.22221 -0.423746,-0.31006 -0.749308,-0.56327 -0.320394,-0.25322 -0.485758,-0.44959 -0.160197,-0.19637 -0.248047,-0.42375 -0.08268,-0.22737 -0.08268,-0.47025 0,-0.42892 0.24288,-0.80099 0.248047,-0.37207 0.72347,-0.53743 0.480591,-0.17053 1.167887,-0.17053 0.718302,0 1.834513,0.18603 l 0.08268,1.45211 q -0.625285,-0.24805 -1.204061,-0.24805 -0.408244,0 -0.594279,0.0827 -0.180868,0.0827 -0.180868,0.25322 0,0.0568 0.02067,0.10852 0.02067,0.0517 0.07235,0.10852 0.05684,0.0568 0.134359,0.11886 0.08268,0.0568 0.392741,0.27388 0.310058,0.21704 0.485758,0.35657 0.289388,0.22738 0.43925,0.42375 0.155029,0.1912 0.232544,0.41341 0.08268,0.21704 0.08268,0.45992 0,0.3669 -0.180868,0.67696 -0.1757,0.30489 -0.537435,0.5116 -0.356567,0.2067 -0.775146,0.28422 -0.418579,0.0827 -0.862996,0.0827 -0.299724,0 -0.754476,-0.0517 -0.449585,-0.0517 -1.049032,-0.18087 z"
         style="font-style:normal;font-variant:normal;font-weight:normal;font-stretch:normal;font-family:'Eras Bold ITC';-inkscape-font-specification:'Eras Bold ITC';stroke-width:0.26458332"
         id="path863" />
    </g>
    <g
       aria-label="bonbons"
       style="font-style:normal;font-variant:normal;font-weight:normal;font-stretch:normal;font-size:23.56913757px;line-height:1.25;font-family:Arial;-inkscape-font-specification:Arial;letter-spacing:0px;word-spacing:0px;fill:#000000;fill-opacity:1;stroke:none;stroke-width:0.58922839"
       id="text863">
      <path
         d="m 23.30417,282.9371 q 0.322234,-3.62513 0.56391,-8.44714 0.241676,-4.822 0.241676,-7.26178 1.334971,0.023 2.497316,0.023 1.139328,0 2.232623,-0.023 -0.253184,1.79531 -0.368268,3.94737 1.047262,-0.17262 1.611172,-0.23017 0.56391,-0.0575 1.116312,-0.0575 1.772288,0 3.0267,0.56391 1.265921,0.5524 2.04849,1.87587 0.794077,1.32346 0.794077,3.23385 0,1.91039 -0.748044,3.52156 -0.748044,1.59966 -2.002456,2.38223 -1.254412,0.77106 -2.923125,0.77106 -0.621452,0 -1.185362,-0.12659 -0.56391,-0.12659 -1.024245,-0.36827 -0.460335,-0.25318 -0.771061,-0.52938 -0.310725,-0.2762 -0.713518,-0.74805 l -0.04603,1.47307 q -1.231395,-0.023 -2.059998,-0.023 -0.678993,0 -2.290165,0.023 z m 4.845023,-8.5277 q -0.09207,1.91039 -0.09207,2.3362 0,1.08179 0.184134,1.71475 0.195642,0.63296 0.725027,1.01273 0.540893,0.37978 1.208379,0.37978 0.690502,0 1.208378,-0.37978 0.517877,-0.37977 0.782569,-1.1048 0.276201,-0.73653 0.276201,-1.54212 0,-1.20838 -0.655977,-1.93341 -0.644468,-0.73653 -1.864355,-0.73653 -0.759553,0 -1.772289,0.25318 z"
         style="font-style:normal;font-variant:normal;font-weight:normal;font-stretch:normal;font-family:'Eras Bold ITC';-inkscape-font-specification:'Eras Bold ITC';stroke-width:0.58922839"
         id="path832" />
      <path
         d="m 45.618896,270.88784 q 1.427037,0 2.738991,0.43732 1.323463,0.43732 2.232624,1.26592 0.909161,0.81709 1.33497,1.9219 0.437318,1.09329 0.437318,2.35921 0,1.2314 -0.391284,2.34771 -0.379776,1.1048 -1.300446,2.08302 -0.920669,0.9667 -2.347707,1.45005 -1.415529,0.48335 -3.003684,0.48335 -1.461563,0 -2.808042,-0.42581 -1.346479,-0.42581 -2.25564,-1.2429 -0.897653,-0.8171 -1.357987,-1.95643 -0.448827,-1.13932 -0.448827,-2.39374 0,-1.25441 0.437318,-2.39374 0.448827,-1.13932 1.404021,-2.04849 0.966703,-0.90916 2.382232,-1.39251 1.41553,-0.49486 2.946143,-0.49486 z m -0.08056,3.38346 q -0.736535,0 -1.311954,0.37978 -0.575418,0.37977 -0.874636,1.11631 -0.287709,0.72503 -0.287709,1.58815 0,1.26593 0.63296,1.94492 0.63296,0.66748 1.588155,0.66748 0.725027,0 1.300446,-0.37977 0.575418,-0.39129 0.863127,-1.13933 0.299218,-0.75955 0.299218,-1.62268 0,-0.71352 -0.230168,-1.28894 -0.230167,-0.57542 -0.759552,-0.92067 -0.517876,-0.34525 -1.219887,-0.34525 z"
         style="font-style:normal;font-variant:normal;font-weight:normal;font-stretch:normal;font-family:'Eras Bold ITC';-inkscape-font-specification:'Eras Bold ITC';stroke-width:0.58922839"
         id="path834" />
      <path
         d="m 53.939447,282.9371 q 0.333742,-2.6124 0.506368,-5.76569 0.184134,-3.1648 0.218659,-5.98435 1.381004,0.023 2.382232,0.023 1.162345,0 2.232623,-0.023 l -0.115083,1.56514 q 0.379776,-0.42581 0.655977,-0.66749 0.2762,-0.25318 0.678993,-0.48335 0.414302,-0.24167 0.874636,-0.39128 0.460335,-0.14961 1.001228,-0.23017 0.552402,-0.0921 1.150837,-0.0921 0.828603,0 1.611172,0.18414 0.794077,0.17262 1.323462,0.50636 0.529385,0.32224 0.886144,0.8171 0.35676,0.48335 0.471843,1.04726 0.115084,0.56391 0.115084,1.16234 0,0.43732 -0.09207,1.88738 l -0.195642,4.16603 q -0.05754,1.23139 -0.05754,2.27865 -1.162345,-0.023 -2.175082,-0.023 -1.369495,0 -2.497315,0.023 0.103575,-1.04726 0.218659,-3.10726 0.115083,-2.0715 0.115083,-2.91161 0,-1.30045 -0.506368,-1.80682 -0.49486,-0.51787 -1.254412,-0.51787 -0.667485,0 -1.265921,0.43731 -0.586926,0.43732 -0.909161,1.27743 -0.322234,0.82861 -0.460334,2.73899 -0.126592,1.91039 -0.172626,3.88983 -1.150837,-0.023 -2.244132,-0.023 -1.150836,0 -2.497315,0.023 z"
         style="font-style:normal;font-variant:normal;font-weight:normal;font-stretch:normal;font-family:'Eras Bold ITC';-inkscape-font-specification:'Eras Bold ITC';stroke-width:0.58922839"
         id="path836" />
      <path
         d="m 70.028142,282.9371 q 0.322235,-3.62513 0.56391,-8.44714 0.241676,-4.822 0.241676,-7.26178 1.334971,0.023 2.497316,0.023 1.139328,0 2.232623,-0.023 -0.253184,1.79531 -0.368267,3.94737 1.047261,-0.17262 1.611171,-0.23017 0.56391,-0.0575 1.116312,-0.0575 1.772289,0 3.026701,0.56391 1.26592,0.5524 2.048489,1.87587 0.794077,1.32346 0.794077,3.23385 0,1.91039 -0.748043,3.52156 -0.748044,1.59966 -2.002456,2.38223 -1.254413,0.77106 -2.923126,0.77106 -0.621452,0 -1.185362,-0.12659 -0.56391,-0.12659 -1.024245,-0.36827 -0.460334,-0.25318 -0.77106,-0.52938 -0.310726,-0.2762 -0.713519,-0.74805 l -0.04603,1.47307 q -1.231396,-0.023 -2.059998,-0.023 -0.678994,0 -2.290166,0.023 z m 4.845023,-8.5277 q -0.09207,1.91039 -0.09207,2.3362 0,1.08179 0.184134,1.71475 0.195643,0.63296 0.725027,1.01273 0.540894,0.37978 1.208379,0.37978 0.690502,0 1.208379,-0.37978 0.517876,-0.37977 0.782569,-1.1048 0.276201,-0.73653 0.276201,-1.54212 0,-1.20838 -0.655977,-1.93341 -0.644469,-0.73653 -1.864356,-0.73653 -0.759552,0 -1.772289,0.25318 z"
         style="font-style:normal;font-variant:normal;font-weight:normal;font-stretch:normal;font-family:'Eras Bold ITC';-inkscape-font-specification:'Eras Bold ITC';stroke-width:0.58922839"
         id="path838" />
      <path
         d="m 92.34287,270.88784 q 1.427038,0 2.738991,0.43732 1.323463,0.43732 2.232624,1.26592 0.909161,0.81709 1.334971,1.9219 0.437318,1.09329 0.437318,2.35921 0,1.2314 -0.391285,2.34771 -0.379776,1.1048 -1.300446,2.08302 -0.920669,0.9667 -2.347707,1.45005 -1.415529,0.48335 -3.003684,0.48335 -1.461562,0 -2.808041,-0.42581 -1.34648,-0.42581 -2.255641,-1.2429 -0.897652,-0.8171 -1.357987,-1.95643 -0.448826,-1.13932 -0.448826,-2.39374 0,-1.25441 0.437318,-2.39374 0.448826,-1.13932 1.404021,-2.04849 0.966702,-0.90916 2.382232,-1.39251 1.415529,-0.49486 2.946142,-0.49486 z m -0.08056,3.38346 q -0.736535,0 -1.311954,0.37978 -0.575418,0.37977 -0.874636,1.11631 -0.287709,0.72503 -0.287709,1.58815 0,1.26593 0.63296,1.94492 0.632961,0.66748 1.588155,0.66748 0.725027,0 1.300446,-0.37977 0.575418,-0.39129 0.863127,-1.13933 0.299218,-0.75955 0.299218,-1.62268 0,-0.71352 -0.230167,-1.28894 -0.230168,-0.57542 -0.759553,-0.92067 -0.517876,-0.34525 -1.219887,-0.34525 z"
         style="font-style:normal;font-variant:normal;font-weight:normal;font-stretch:normal;font-family:'Eras Bold ITC';-inkscape-font-specification:'Eras Bold ITC';stroke-width:0.58922839"
         id="path840" />
      <path
         d="m 100.66342,282.9371 q 0.33374,-2.6124 0.50637,-5.76569 0.18413,-3.1648 0.21866,-5.98435 1.381,0.023 2.38223,0.023 1.16234,0 2.23262,-0.023 l -0.11508,1.56514 q 0.37977,-0.42581 0.65597,-0.66749 0.27621,-0.25318 0.679,-0.48335 0.4143,-0.24167 0.87463,-0.39128 0.46034,-0.14961 1.00123,-0.23017 0.5524,-0.0921 1.15084,-0.0921 0.8286,0 1.61117,0.18414 0.79408,0.17262 1.32346,0.50636 0.52939,0.32224 0.88615,0.8171 0.35676,0.48335 0.47184,1.04726 0.11508,0.56391 0.11508,1.16234 0,0.43732 -0.0921,1.88738 l -0.19564,4.16603 q -0.0575,1.23139 -0.0575,2.27865 -1.16234,-0.023 -2.17508,-0.023 -1.36949,0 -2.49731,0.023 0.10357,-1.04726 0.21865,-3.10726 0.11509,-2.0715 0.11509,-2.91161 0,-1.30045 -0.50637,-1.80682 -0.49486,-0.51787 -1.25441,-0.51787 -0.66749,0 -1.26592,0.43731 -0.58693,0.43732 -0.90916,1.27743 -0.32224,0.82861 -0.46034,2.73899 -0.12659,1.91039 -0.17262,3.88983 -1.15084,-0.023 -2.24414,-0.023 -1.15083,0 -2.49731,0.023 z"
         style="font-style:normal;font-variant:normal;font-weight:normal;font-stretch:normal;font-family:'Eras Bold ITC';-inkscape-font-specification:'Eras Bold ITC';stroke-width:0.58922839"
         id="path842" />
      <path
         d="m 116.70608,282.71844 q -0.046,-0.50636 -0.0921,-1.05877 -0.046,-0.56391 -0.1496,-1.54212 l -0.0921,-0.8286 q 1.11631,0.43732 1.9219,0.65598 0.80558,0.20715 1.48458,0.20715 0.56391,0 0.90916,-0.10358 0.35676,-0.10357 0.51787,-0.29921 0.16112,-0.19565 0.16112,-0.4028 0,-0.18413 -0.12659,-0.35676 -0.11509,-0.18413 -0.5409,-0.49486 -0.94368,-0.6905 -1.66871,-1.25441 -0.71352,-0.56391 -1.08178,-1.00123 -0.35676,-0.43731 -0.55241,-0.94368 -0.18413,-0.50637 -0.18413,-1.04726 0,-0.9552 0.54089,-1.7838 0.5524,-0.8286 1.61117,-1.19687 1.07028,-0.37978 2.6009,-0.37978 1.59966,0 4.08547,0.4143 l 0.18413,3.23385 q -1.39251,-0.5524 -2.68145,-0.5524 -0.90916,0 -1.32346,0.18414 -0.40279,0.18413 -0.40279,0.56391 0,0.12659 0.046,0.24167 0.046,0.11509 0.16112,0.24168 0.12659,0.12659 0.29921,0.26469 0.18414,0.12659 0.87464,0.60994 0.6905,0.48336 1.08179,0.79408 0.64446,0.50637 0.97821,0.94369 0.34525,0.42581 0.51787,0.92067 0.18414,0.48335 0.18414,1.02424 0,0.8171 -0.4028,1.5076 -0.39128,0.67899 -1.19687,1.13933 -0.79407,0.46033 -1.72625,0.63296 -0.93218,0.18413 -1.9219,0.18413 -0.66748,0 -1.68022,-0.11508 -1.00123,-0.11509 -2.3362,-0.4028 z"
         style="font-style:normal;font-variant:normal;font-weight:normal;font-stretch:normal;font-family:'Eras Bold ITC';-inkscape-font-specification:'Eras Bold ITC';stroke-width:0.58922839"
         id="path844" />
    </g>
    <g
       aria-label="!"
       style="font-style:normal;font-variant:normal;font-weight:normal;font-stretch:normal;font-size:34.24246216px;line-height:1.25;font-family:Arial;-inkscape-font-specification:Arial;letter-spacing:0px;word-spacing:0px;fill:#000000;fill-opacity:1;stroke:none;stroke-width:0.85606152"
       id="text867">
      <path
         d="m 144.70893,279.11833 q 0.2508,-5.88542 0.40128,-14.29556 2.12343,0.0334 3.52791,0.0334 1.12024,0 3.34399,-0.0334 -0.3344,3.07647 -1.12024,14.29556 -1.70543,-0.0334 -2.74207,-0.0334 -1.52151,0 -3.41087,0.0334 z m -0.78584,8.52718 q 0.13376,-1.55496 0.18392,-2.37424 0.0502,-0.83599 0.1672,-3.44431 2.10672,0.0334 3.59479,0.0334 1.254,0 3.34399,-0.0334 -0.23408,3.76199 -0.28424,5.81855 -2.54143,-0.0334 -3.39415,-0.0334 -1.25399,0 -3.61151,0.0334 z"
         style="font-style:normal;font-variant:normal;font-weight:normal;font-stretch:normal;font-family:'Eras Bold ITC';-inkscape-font-specification:'Eras Bold ITC';stroke-width:0.85606152"
         id="path828" />
    </g>
    <g
       id="g837"
       transform="matrix(0.60325453,0.24904195,-0.24904195,0.60325453,200.81396,33.698765)">
      <ellipse
         ry="18.842501"
         rx="33.007786"
         cy="348.71664"
         cx="86.461693"
         id="path823"
         style="opacity:1;fill:#008033;fill-opacity:1;stroke:none;stroke-width:1.05833328;stroke-linecap:round;stroke-linejoin:round;stroke-miterlimit:4;stroke-dasharray:none;stroke-dashoffset:0;stroke-opacity:1" />
      <path
         sodipodi:nodetypes="cccc"
         inkscape:connector-curvature="0"
         id="path825"
         d="m 109.31324,348.85028 24.58879,-14.16529 c -3.82459,9.32396 -7.03931,18.77861 -1.06907,30.20146 z"
         style="fill:#008033;fill-opacity:1;stroke:none;stroke-width:0.26458332px;stroke-linecap:butt;stroke-linejoin:miter;stroke-opacity:1" />
      <path
         style="fill:#008033;fill-opacity:1;stroke:none;stroke-width:0.26458332px;stroke-linecap:butt;stroke-linejoin:miter;stroke-opacity:1"
         d="m 62.541066,347.24666 -24.58879,-14.16529 c 3.82459,9.32396 7.03931,18.77861 1.06907,30.20146 z"
         id="path827"
         inkscape:connector-curvature="0"
         sodipodi:nodetypes="cccc" />
      <path
         sodipodi:nodetypes="czzzc"
         inkscape:connector-curvature="0"
         id="path831"
         d="m 82.020834,327.46918 c 0,0 10.583332,5.5943 10.583332,10.58333 0,4.98903 -10.583332,5.5943 -10.583333,10.58333 -10e-7,4.98903 10.583334,5.59431 10.583333,10.58334 -1e-6,4.98903 -10.583333,10.58333 -10.583333,10.58333"
         style="fill:none;stroke:#aaffcc;stroke-width:5.29166651;stroke-linecap:butt;stroke-linejoin:miter;stroke-miterlimit:4;stroke-dasharray:none;stroke-opacity:1" />
    </g>
  </g>
</svg>
